<?xml version="1.0" encoding="utf-8"?>
<!-- Generator: Adobe Illustrator 19.2.1, SVG Export Plug-In . SVG Version: 6.00 Build 0)  -->
<svg version="1.1" id="Слой_1" xmlns="http://www.w3.org/2000/svg" xmlns:xlink="http://www.w3.org/1999/xlink" x="0px" y="0px"
	 viewBox="0 0 16.6327 11.6034" style="enable-background:new 0 0 16.6327 11.6034;" xml:space="preserve">
<style type="text/css">
	.st0{fill:#87C832;}
</style>
<g id="Слой_x0020_1">
	<path class="st0" d="M11.9007,4.2897c0.1983,0.0283,0.3684,0.0567,0.5384,0.085c0.2267,0.0283,0.34,0.085,0.4534-0.0567
		c0.6234-0.7934,1.2751-1.8134,2.0401-2.3801c0.255-0.1983,0.51-0.34,0.7934-0.425c0.51-0.17,0.595-0.085,0.9067-0.1133
		c-0.68-0.3684-1.9551-0.7934-2.6635-0.9634c-2.2668-0.5667-4.7036-0.6517-6.7721,0.17c-0.6234,0.255-1.2184,0.51-1.8985,0.9917
		c-2.0401,1.4168-3.4285,3.4852-3.6552,6.007L1.6151,7.8033c0.0283,0.0567,0,0.0283,0.0283,0.085
		c0.1983-0.2267,0.3967-0.51,0.5667-0.7367C3.7402,5.3664,6.007,3.5247,8.1038,2.7029c0.51-0.1983,0.9634-0.425,1.4734-0.5384
		c0.2834-0.085,0.4817-0.1417,0.765-0.2267c0.51-0.085,2.0118-0.3684,2.3801-0.255c-0.1133-0.0283-0.8217,0.1133-0.9634,0.1417
		c-0.3684,0.085-0.6234,0.17-0.9351,0.255C7.9055,2.9863,4.732,5.4798,2.6635,7.7749c-0.51,0.5667-0.9634,1.1334-1.4168,1.7568
		C1.0484,9.8151,0,11.3168,0,11.5718c0.0283,0.085,0.2834-0.0283,0.34-0.0283c0.765-0.255,1.5301-1.0484,2.0685-1.6434
		c0.595-0.68,0.3117-0.5667,0.9351-0.6234c1.0484-0.085,2.2951-0.2834,3.2302-0.5384C7.0554,8.5966,7.4521,8.455,7.9338,8.2566
		c0.595-0.2267,2.1251-1.0201,2.4935-1.4451L7.9055,5.6781l0.0283-0.0283l2.9752,0.4534c0.34,0.0283,0.2834,0.1133,0.51-0.1133
		c0.255-0.255,0.6234-0.595,0.8217-0.8784c-0.7367-0.34-1.6434-0.7367-2.3518-1.1051L11.9007,4.2897z"/>
</g>
</svg>
