<?xml version="1.0" encoding="utf-8"?>
<!-- Generator: Adobe Illustrator 19.2.1, SVG Export Plug-In . SVG Version: 6.00 Build 0)  -->
<svg version="1.1" id="Слой_1" xmlns="http://www.w3.org/2000/svg" xmlns:xlink="http://www.w3.org/1999/xlink" x="0px" y="0px"
	 viewBox="0 0 14.8188 16.4414" style="enable-background:new 0 0 14.8188 16.4414;" xml:space="preserve">
<style type="text/css">
	.st0{fill:#F33F00;}
</style>
<g id="Слой_x0020_1">
	<path class="st0" d="M7.7067,13.9692l0.17-0.7367c0.2267,0.0283,1.9268,0.7934,1.8134-0.8501
		c-0.255,0.17-0.765,0.7084-1.5584,0.2267c-0.9634-0.5667-0.9634-2.3518,0.0283-2.9468c0.255-0.1417,0.595-0.255,0.9351-0.1983
		c0.3967,0.0567,0.5384,0.255,0.7084,0.425V9.5206h0.9067c0,0.8501,0.085,3.1452-0.17,3.7969
		C10.2002,14.2525,8.6985,14.4509,7.7067,13.9692z M8.4718,11.4474c0.085,0.3684,0.425,0.7367,0.8501,0.5384
		c0.3967-0.17,0.3967-0.6234,0.3684-1.1617C9.6052,9.8606,8.2168,10.0873,8.4718,11.4474z M6.0633,10.8807l0.6517,0.9351
		l0.6234,0.9917H6.1483L5.3549,11.504l-0.2834,0.3684v0.9351H4.0515v-4.732l1.0201-0.0283v2.8335l1.0767-1.3601h1.0201
		L6.0633,10.8807z M5.865,3.4569c-0.425-2.0685,2.6918-2.5785,3.0602-0.6517C9.3218,4.9303,6.2616,5.412,5.865,3.4569z
		 M5.3549,5.582C4.7316,5.6387,4.1649,5.6954,3.5698,5.8087c-0.2834,0.0283-0.5667,0.085-0.8501,0.17
		c-0.4534,0.1417-0.425,0.0567-0.5384,0.4817C1.8697,7.5655,1.5864,8.6139,1.303,9.7189s-0.5667,2.1535-0.8501,3.2302
		c-0.51,1.8701-0.68,1.7001-0.0283,2.1251c0.2267,0.1417,0.425,0.255,0.7084,0.3684c2.8052,1.1901,7.6788,1.2467,10.824,0.5384
		c0.9634-0.2267,2.3801-0.68,2.8618-1.2751l-2.2951-8.5572c-0.255-0.2834-2.5502-0.51-3.0885-0.5667
		c0.17-0.3117,0.6517-0.5384,0.9634-1.5018C10.9936,2.0968,9.5485,0,7.4234,0C5.95,0.0283,4.9016,0.9351,4.5049,1.9551
		c-0.2834,0.68-0.34,1.3601-0.1133,2.0968C4.7032,5.072,5.1849,5.2703,5.3549,5.582z"/>
</g>
</svg>
