<?xml version="1.0" encoding="utf-8"?>
<!-- Generator: Adobe Illustrator 19.2.1, SVG Export Plug-In . SVG Version: 6.00 Build 0)  -->
<svg version="1.1" id="Слой_1" xmlns="http://www.w3.org/2000/svg" xmlns:xlink="http://www.w3.org/1999/xlink" x="0px" y="0px"
	 viewBox="0 0 10.0754 14.3977" style="enable-background:new 0 0 10.0754 14.3977;" xml:space="preserve">
<style type="text/css">
	.st0{fill:#3a434c;}
</style>
<path class="st0" d="M6.5367,13.3144H3.5378c-0.1656,0-0.2999-0.1616-0.2999-0.3611c0-0.1994,0.1343-0.3611,0.2999-0.3611h2.9989
	c0.1656,0,0.2999,0.1617,0.2999,0.3611C6.8366,13.1528,6.7023,13.3144,6.5367,13.3144z"/>
<path class="st0" d="M6.1169,14.3977H3.9577c-0.1987,0-0.3599-0.1616-0.3599-0.3611c0-0.1993,0.1612-0.3611,0.3599-0.3611h2.1592
	c0.1987,0,0.3598,0.1618,0.3598,0.3611C6.4767,14.2361,6.3156,14.3977,6.1169,14.3977z"/>
<path class="st0" d="M5.8036,12.2311H4.271c-0.7681,0-1.3929-0.627-1.3929-1.3977v-0.8021c0-0.2433-0.1364-0.4677-0.3646-0.6005
	C0.7245,8.39-0.2417,6.3817,0.0521,4.3145c0.3168-2.2327,2.1721-4.0339,4.4116-4.2826C4.6544,0.0107,4.8473,0,5.0373,0
	c2.778,0,5.0381,2.2679,5.0381,5.0554c0,1.7967-0.9635,3.4732-2.5145,4.3755C7.3326,9.5636,7.1964,9.788,7.1964,10.0313v0.8021
	C7.1964,11.6041,6.5716,12.2311,5.8036,12.2311z M5.0373,0.7222c-0.1636,0-0.3299,0.0093-0.4945,0.0277
	c-1.9179,0.213-3.5069,1.7549-3.7782,3.6665C0.5124,6.1907,1.3406,7.9136,2.8745,8.806c0.4531,0.2635,0.7233,0.7216,0.7233,1.2253
	v0.8021c0,0.3724,0.3021,0.6754,0.6732,0.6754h1.5326c0.371,0,0.6731-0.303,0.6731-0.6754v-0.8021
	c0-0.5037,0.2705-0.9619,0.7233-1.2253c1.3296-0.7736,2.1556-2.2106,2.1556-3.7506C9.3556,2.6662,7.4184,0.7222,5.0373,0.7222z"/>
<path class="st0" d="M1.7985,5.4166c-0.1988,0-0.3599-0.1617-0.3599-0.3612c0-1.9911,1.6143-3.611,3.5987-3.611
	c0.1987,0,0.3598,0.1618,0.3598,0.3611c0,0.1994-0.1611,0.361-0.3598,0.361c-1.5874,0-2.8789,1.2961-2.8789,2.8889
	C2.1584,5.2549,1.9972,5.4166,1.7985,5.4166z"/>
</svg>
