<?xml version="1.0" encoding="utf-8"?>
<!-- Generator: Adobe Illustrator 19.2.1, SVG Export Plug-In . SVG Version: 6.00 Build 0)  -->
<svg version="1.1" id="Layer_1" xmlns="http://www.w3.org/2000/svg" xmlns:xlink="http://www.w3.org/1999/xlink" x="0px" y="0px"
	 viewBox="0 0 170.3663 29.1684" style="enable-background:new 0 0 170.3663 29.1684;" xml:space="preserve">
<style type="text/css">
	.st0{fill:#838E95;}
</style>
<g>
	<g>
		<path class="st0" d="M62.3418,16.0234h-6.1387l-1.2192,3.2721h-2.4811L58.0215,5.534c0.449-0.1928,0.9194-0.2885,1.3689-0.2885
			c0.8128,0,1.4115,0.3846,1.7753,1.2701l5.1118,12.7799h-2.7165L62.3418,16.0234z M61.6787,14.2338l-2.4167-6.4672l-2.3958,6.4672
			H61.6787z"/>
		<path class="st0" d="M78.1685,13.7347c0,3.6359-2.1177,5.7749-5.711,5.7749c-0.5561,0-1.3262-0.0213-2.1177-0.0644v4.7698h-2.4167
			V8.7082c0.4064-0.1923,0.8341-0.3207,1.2405-0.3207c0.6844,0,1.1122,0.5774,1.1122,1.4973v0.4064
			c0.8985-1.3049,2.3101-1.9037,3.7216-1.9037C76.5855,8.3875,78.1685,10.3764,78.1685,13.7347z M75.7088,13.7347
			c0-2.1391-0.8985-3.4009-2.5455-3.4009c-1.4328,0-2.8235,0.9838-2.8235,3.2086v4.0849c0.7062,0.0218,1.3689,0.0426,1.925,0.0426
			C74.4038,17.6699,75.7088,16.2157,75.7088,13.7347z"/>
		<path class="st0" d="M88.4552,16.7718l0.9625,1.5403c-1.2832,0.8128-2.6947,1.1975-4.3847,1.1975
			c-3.1442,0-5.0048-1.9463-5.0048-5.2615c0-3.6794,2.0103-5.8606,5.4112-5.8606c2.5241,0,3.9996,1.3049,3.9996,3.4866
			c0,2.1386-1.8393,3.4005-4.9408,3.4005c-0.6844,0-1.3902-0.064-2.0747-0.1928c0.2141,1.6256,1.1122,2.5672,2.7591,2.5672
			C86.4876,17.649,87.5571,17.3497,88.4552,16.7718z M82.4022,13.6494c0.7058,0.1066,1.4333,0.1497,2.0747,0.1497
			c1.6469,0,2.6094-0.6849,2.6094-1.8184c0-1.0482-0.7058-1.6896-1.9037-1.6896C83.5788,10.2911,82.5519,11.5317,82.4022,13.6494z"
			/>
		<path class="st0" d="M101.501,9.6707v9.6249h-2.4167v-4.577h-4.8129v4.577h-2.4167V8.7082
			c0.4064-0.1923,0.8341-0.3207,1.2405-0.3207c0.7271,0,1.1761,0.4921,1.1761,1.2832v3.2086h4.8129V8.7082
			c0.4064-0.1923,0.8341-0.3207,1.2405-0.3207C101.0519,8.3875,101.501,8.8796,101.501,9.6707z"/>
		<path class="st0" d="M115.0815,17.4776v4.064c-0.4064,0.1923-0.8341,0.3211-1.2405,0.3211c-0.7271,0-1.1761-0.5778-1.1761-1.4977
			v-1.0695h-6.9088l-0.1066,2.2461c-0.3638,0.1923-0.7702,0.3211-1.1339,0.3211c-0.6844,0-1.0909-0.5778-1.0909-1.4977v-2.8017
			c1.1766-0.5348,1.8397-1.6469,1.9681-3.7216l0.3207-5.2406h8.1494v8.8765H115.0815z M111.4457,17.4776v-7.0368h-3.6789
			l-0.2141,3.8713c-0.0853,1.3689-0.513,2.4171-1.1761,3.1655H111.4457z"/>
		<path class="st0" d="M125.7964,12.3232v6.8653c-0.4064,0.1928-0.8341,0.3211-1.2405,0.3211c-0.6844,0-1.1122-0.5774-1.1122-1.4973
			v-0.4277c-0.8772,1.3262-2.1817,1.925-3.5293,1.925c-2.096,0-3.3583-1.2192-3.3583-3.2512c0-2.1599,1.7753-3.4218,4.8555-3.4218
			c0.6418,0,1.3262,0.0209,1.9676,0.064v-0.107c0-1.6043-0.6414-2.545-2.2457-2.545c-1.0482,0-2.0533,0.2994-2.9088,0.8768
			l-0.9625-1.5399c1.2619-0.8128,2.6307-1.1979,4.2777-1.1979C124.2134,8.3875,125.7964,9.8421,125.7964,12.3232z M123.3793,14.3978
			c-0.6631-0.0426-1.3258-0.0644-1.9036-0.0644c-1.6469,0-2.6094,0.6418-2.6094,1.7327c0,0.9838,0.5774,1.6256,1.6683,1.6256
			C121.9678,17.6917,123.358,16.6435,123.3793,14.3978z"/>
		<path class="st0" d="M135.9552,10.4408h-3.1015v8.8547h-2.4167v-8.8547h-3.0802V8.6011h8.5984V10.4408z"/>
		<path class="st0" d="M147.5255,9.6707v9.6249h-2.4167v-6.2453l-4.8129,4.3847v1.8606h-2.4167V8.7082
			c0.4064-0.1923,0.8341-0.3207,1.2405-0.3207c0.7271,0,1.1761,0.4921,1.1761,1.2832v5.1762l4.8129-4.3847v-1.754
			c0.4064-0.1923,0.8341-0.3207,1.2405-0.3207C147.0764,8.3875,147.5255,8.8796,147.5255,9.6707z"/>
		<path class="st0" d="M152.8927,9.6707v9.6249h-2.4167V8.7082c0.4064-0.1923,0.8341-0.3207,1.2405-0.3207
			C152.4436,8.3875,152.8927,8.8796,152.8927,9.6707z M160.871,19.125c-0.4921,0.2776-0.9838,0.3846-1.5616,0.3846
			c-0.8341,0-1.3476-0.278-1.8819-0.8772l-4.4704-4.983l4.8338-5.2619l2.2887,0.3851l-4.406,4.7698L160.871,19.125z"/>
		<path class="st0" d="M170.3663,12.3232v6.8653c-0.4064,0.1928-0.8341,0.3211-1.2405,0.3211c-0.6844,0-1.1122-0.5774-1.1122-1.4973
			v-0.4277c-0.8772,1.3262-2.1817,1.925-3.5293,1.925c-2.096,0-3.3583-1.2192-3.3583-3.2512c0-2.1599,1.7753-3.4218,4.8555-3.4218
			c0.6418,0,1.3262,0.0209,1.9676,0.064v-0.107c0-1.6043-0.6414-2.545-2.2457-2.545c-1.0482,0-2.0533,0.2994-2.9088,0.8768
			l-0.9625-1.5399c1.2618-0.8128,2.6307-1.1979,4.2777-1.1979C168.7833,8.3875,170.3663,9.8421,170.3663,12.3232z M167.9492,14.3978
			c-0.6631-0.0426-1.3258-0.0644-1.9037-0.0644c-1.6469,0-2.6094,0.6418-2.6094,1.7327c0,0.9838,0.5774,1.6256,1.6682,1.6256
			C166.5376,17.6917,167.9278,16.6435,167.9492,14.3978z"/>
	</g>
	<path class="st0" d="M36.2784,28.5941c-0.5111,0.3918-1.1531,0.5742-1.7971,0.5742l-9.6934,0c-1.711,0-3.2641-1.0763-3.8648-2.6783
		l-2.3479-6.2721c-0.4489-1.1991,0.4377-2.4776,1.7181-2.4776h0c0.1764,0,0.3343,0.1095,0.3961,0.2747l2.8102,7.5089
		c0.2002,0.534,0.7179,0.8927,1.2883,0.8927h9.7741c0.0168,0,0.048,0,0.0754-0.0395c0.0274-0.0395,0.0164-0.0687,0.0105-0.0845
		L26.155,3.6445c-0.2014-0.537-0.7147-0.8928-1.2882-0.8928H23.802l-3.789,10.5129c-0.6066,1.6188-2.1599,2.6954-3.8711,2.6954
		h-0.7913l-3.9514,10.5308c-0.6043,1.6106-2.1442,2.6775-3.8645,2.6775H2.8409c-1.2252,0-2.349-0.7899-2.7273-2.0326
		c-0.1876-0.6161-0.1332-1.2814,0.0931-1.8844l3.4998-9.3271c-1.1443-0.1728-2.1446-0.9574-2.5546-2.1202
		c-0.2588-0.7341-0.212-1.5421,0.0612-2.2709l3.3182-8.854C5.1352,1.0677,6.6755,0,8.3964,0l9.0686,0
		c0.5087,0,0.8631,0.505,0.69,0.9834v0c-0.3839,1.0613-1.3915,1.7684-2.5201,1.7684H8.3964c-0.5736,0-1.0871,0.3559-1.2884,0.893
		l-3.352,8.9439c-0.0733,0.1956,0.0014,0.3485,0.0525,0.4223c0.0511,0.0737,0.168,0.1973,0.3769,0.1973l0.1312,0
		c0.4709,0,0.9421,0.1201,1.3301,0.387c0.9061,0.6232,1.2199,1.7392,0.8606,2.6969L2.755,26.2926
		c-0.0059,0.0157-0.0169,0.045,0.0105,0.0845s0.0586,0.0395,0.0754,0.0395h4.6938c0.5734,0,1.0867-0.3556,1.2882-0.8925
		l4.0657-10.8354c0.3341-0.8905,1.1855-1.4804,2.1367-1.4804h1.1167c0.5704,0,1.0882-0.3589,1.2884-0.8931l3.7831-10.4965
		C21.6067,0.7274,22.6421,0,23.8021,0h1.0646c1.7205,0,3.2606,1.0673,3.8647,2.6783l8.4931,22.6482
		C37.6548,26.4738,37.3096,27.8037,36.2784,28.5941z M14.0062,6.6042h-3.2084c-0.3063,0-0.5803,0.1902-0.6874,0.4771L9.446,8.8606
		C9.3565,9.1004,9.5338,9.3559,9.7897,9.3559h0.4989h3.2346c0.309,0,0.5849-0.1936,0.69-0.4841l0.6427-1.7759
		c0.0866-0.2392-0.0906-0.4918-0.345-0.4918H14.0062z"/>
	<path class="st0" d="M23.802,2.7517h1.0647c0.5703,0,1.088,0.3587,1.2883,0.8928l8.4931,22.6481
		c0.0059,0.0158,0.0168,0.045-0.0105,0.0845c-0.0274,0.0395-0.0586,0.0395-0.0754,0.0395H24.788
		c-0.5703,0-1.088-0.3587-1.2883-0.8927l-2.8102-7.5089c-0.0619-0.1652-0.2197-0.2747-0.3961-0.2747l0,0
		c-1.2804,0-2.1669,1.2785-1.7181,2.4776l2.3479,6.2721c0.6007,1.602,2.1538,2.6783,3.8648,2.6783h9.7056
		c0.7079,0,1.4063-0.2328,1.9381-0.7c0.9112-0.8005,1.201-2.0533,0.7929-3.1418L28.7315,2.6784C28.1308,1.0763,26.5776,0,24.8667,0
		h-0.0729L23.802,2.7517"/>
</g>
</svg>
